<svg xmlns="http://www.w3.org/2000/svg" width="64" height="64" viewBox="0 0 32 32">
    <path d="M28.76 15.394a11.799 12.26 0 1 1-23.598 0 11.799 12.26 0 1 1 23.598 0" style="fill:#039;fill-opacity:1;stroke:none" transform="matrix(1.36395 0 0 1.30613 -7.04 -3.953)"/>
    <path d="M11.133 17.896v-3.87h-.54v-1.18h2.04v5.05zm1.61-6.8q0 .19-.07.37a.9.9 0 0 1-.2.3.9.9 0 0 1-.29.21.9.9 0 0 1-.36.07 1 1 0 0 1-.37-.07.97.97 0 0 1-.47-.51 1 1 0 0 1-.07-.37q0-.38.26-.65a.86.86 0 0 1 .66-.28q.19 0 .35.08.17.07.29.2a.9.9 0 0 1 .27.65" style="font-size:10px;font-style:normal;font-variant:normal;font-weight:700;font-stretch:normal;text-align:start;line-height:125%;writing-mode:lr-tb;text-anchor:start;fill:#fff;font-family:Axel;-inkscape-font-specification:Axel Bold" transform="matrix(2.81803 0 0 2.79953 -16.518 -23.792)"/>
</svg>
